HIERARCHY
ROOT hip
{
	OFFSET 0.000000 0.000000 0.000000 
	CHANNELS 6 Xposition Yposition Zposition Xrotation Zrotation Yrotation
	JOINT abdomen
	{
		OFFSET 0.000000 3.402643 0.000000 
		CHANNELS 3 Xrotation Zrotation Yrotation
		JOINT chest
		{
			OFFSET 0.000000 8.438565 -0.680529 
			CHANNELS 3 Xrotation Zrotation Yrotation
			JOINT neck
			{
				OFFSET 0.000000 10.207942 -0.272212 
				CHANNELS 3 Xrotation Zrotation Yrotation
				JOINT head
				{
					OFFSET 0.000000 3.130431 0.000000 
					CHANNELS 3 Xrotation Zrotation Yrotation
					End Site
					{
						OFFSET 0.000000 3.130435 0.000000 
					}
				}
			}
			JOINT lCollar
			{
				OFFSET 3.470700 6.669187 -0.816635 
				CHANNELS 3 Yrotation Zrotation Xrotation
				JOINT lShldr
				{
					OFFSET 3.198488 0.000000 0.000000 
					CHANNELS 3 Zrotation Yrotation Xrotation
					JOINT lForeArm
					{
						OFFSET 10.139888 0.000000 0.000000 
						CHANNELS 3 Yrotation Zrotation Xrotation
						JOINT lHand
						{
							OFFSET 8.370511 0.000000 0.000000 
							CHANNELS 3 Zrotation Yrotation Xrotation
							End Site
							{
								OFFSET 4.083176 0.000000 0.000000 
							}
						}
					}
				}
			}
			JOINT rCollar
			{
				OFFSET -3.470700 6.669187 -0.816635 
				CHANNELS 3 Yrotation Zrotation Xrotation
				JOINT rShldr
				{
					OFFSET -3.198488 0.000000 0.000000 
					CHANNELS 3 Zrotation Yrotation Xrotation
					JOINT rForeArm
					{
						OFFSET -10.139888 0.000000 0.000000 
						CHANNELS 3 Yrotation Zrotation Xrotation
						JOINT rHand
						{
							OFFSET -8.370511 0.000000 0.000000 
							CHANNELS 3 Zrotation Yrotation Xrotation
							End Site
							{
								OFFSET -4.083176 0.000000 0.000000 
							}
						}
					}
				}
			}
		}
	}
	JOINT lThigh
	{
		OFFSET 5.308129 -1.633274 1.361059 
		CHANNELS 3 Xrotation Zrotation Yrotation
		JOINT lShin
		{
			OFFSET -2.041588 -20.007561 0.000000 
			CHANNELS 3 Xrotation Zrotation Yrotation
			JOINT lFoot
			{
				OFFSET 0.000000 -19.190928 -1.224953 
				CHANNELS 3 Xrotation Yrotation Zrotation
				End Site
				{
					OFFSET 0.000000 -2.449906 4.627600 
				}
			}
		}
	}
	JOINT rThigh
	{
		OFFSET -5.308129 -1.633274 1.361059 
		CHANNELS 3 Xrotation Zrotation Yrotation
		JOINT rShin
		{
			OFFSET 2.041588 -20.007561 0.000000 
			CHANNELS 3 Xrotation Zrotation Yrotation
			JOINT rFoot
			{
				OFFSET 0.000000 -19.190928 -1.224953 
				CHANNELS 3 Xrotation Yrotation Zrotation
				End Site
				{
					OFFSET 0.000000 -2.449906 4.627600 
				}
			}
		}
	}
}
MOTION
Frames: 18
Frame Time: 0.033333
-0.829088 49.718273 -1.398597 4.059945 3.905418 -1.184217 0.000000 0.000000 0.000000 1.650715 1.334611 1.355253 4.409452 2.234798 -2.120575 15.631974 4.503859 -3.389166 -0.117953 -1.313797 2.100170 -67.325684 15.044988 18.028236 -38.267086 -6.757694 7.341892 -15.342490 -1.159961 -2.821002 1.765674 12.766413 2.090771 56.840988 -10.278886 -4.599733 41.482822 9.811300 34.617645 1.910418 -5.333272 -3.572685 -13.757623 11.091866 3.560347 12.971014 -0.742328 15.250733 14.839243 -0.872880 -6.714890 -9.335260 -8.573436 -6.480267 6.471199 4.899185 -7.257942 -0.317545 -0.012561 -1.280371 
-1.163136 49.715263 -1.840927 4.300551 4.403823 -0.841863 0.000000 0.000000 0.000000 1.894193 1.335292 1.050878 4.696727 1.620015 -2.090665 16.069979 5.644321 -3.414597 0.145970 -1.655572 2.344742 -66.809525 15.066813 18.288624 -39.191864 -6.816498 6.705210 -16.172606 -0.006027 -2.967108 1.932572 12.496338 2.268365 57.429821 -10.386856 -2.605081 41.538357 10.183711 36.801025 0.202758 -5.809115 -3.537748 -13.921279 10.347816 4.127047 11.684575 -1.670303 18.498125 14.458314 -0.681616 -5.604277 -10.200305 -8.569333 -6.258194 6.636297 4.753703 -8.079317 -0.380662 -0.012341 -1.353764 
-1.424976 49.719173 -2.231383 4.426783 4.794703 -0.548226 0.000000 0.000000 0.000000 2.020991 1.315461 0.944852 5.372178 1.385897 -1.973024 15.304144 6.413435 -3.566342 -0.073514 -1.479107 2.452116 -66.807961 15.019659 18.047558 -39.553505 -6.450175 7.978946 -16.048750 0.838461 -3.095422 1.860580 12.253633 2.375423 58.116596 -10.435267 -1.694888 41.390518 10.293861 38.144016 0.246508 -4.945394 -3.534139 -13.730021 9.491848 4.345897 11.147668 -2.527124 18.385662 13.542389 -0.583365 -5.012171 -10.837771 -8.640607 -6.154381 6.822030 4.615330 -8.723789 -0.394082 0.018964 -1.404581 
-1.640586 49.734138 -2.579673 4.697058 5.078039 -0.333321 0.000000 0.000000 0.000000 1.971894 1.342403 0.814787 5.525408 1.161386 -2.021861 15.250159 7.006297 -3.787636 -0.213885 -1.651090 2.413336 -65.870583 14.451700 18.324423 -40.343807 -6.404832 9.499812 -14.400914 1.268144 -3.197183 1.566414 12.191776 2.345150 58.327774 -10.609404 -1.039352 41.924610 10.456136 37.986134 -0.647368 -5.323744 -3.518942 -14.807225 8.696433 3.746259 14.343460 -2.697708 14.839292 13.276225 -0.695982 -6.005984 -11.323472 -8.648038 -5.993518 6.412207 4.595668 -8.903522 -0.091368 -0.014402 -1.227850 
-1.764119 49.747601 -2.878083 4.802888 5.458955 0.186563 0.000000 0.000000 0.000000 1.785925 1.248371 0.235125 5.841811 1.112295 -2.412413 14.882760 6.773554 -3.638707 -0.718604 -1.357462 2.256424 -65.776207 13.887767 18.733192 -40.937603 -6.187690 12.648568 -11.158009 1.797126 -3.317840 1.138507 11.691632 2.192317 58.789581 -10.675802 -0.796613 41.765747 10.568853 37.653908 -0.912018 -4.841233 -3.514788 -14.346128 7.363727 3.596122 15.801682 -3.279395 11.980700 10.842271 -0.538167 -5.913541 -11.470938 -8.971126 -6.177271 5.961725 4.671602 -9.472716 -0.029449 -0.015819 -1.249020 
-1.840048 49.747887 -3.210254 5.246117 5.712570 0.609266 0.000000 0.000000 0.000000 1.366045 1.197534 0.112410 5.726073 1.151022 -2.744567 14.872300 6.693947 -3.854353 -1.250179 -0.910529 1.874772 -65.817368 12.822645 19.134743 -41.301350 -6.098378 14.838331 -7.639693 1.408117 -3.330312 0.601865 11.372522 1.851822 59.089176 -11.160718 -1.050153 42.172997 10.505575 35.861534 -1.072538 -6.887427 -3.528625 -13.940927 6.159840 3.400094 17.912397 -3.621059 9.573092 8.314094 -0.482576 -6.830794 -12.196592 -9.198619 -6.180649 5.728934 4.692850 -10.183196 0.193658 -0.020032 -1.155717 
-1.960392 49.790779 -3.480237 4.760982 5.341740 0.265254 0.000000 0.000000 0.000000 1.502229 1.434157 0.021383 5.943914 1.560375 -2.989300 14.963377 6.070359 -3.848969 -1.581728 -0.592992 2.011138 -65.904358 11.653997 18.961193 -41.894138 -5.791562 15.895083 -4.271978 1.296669 -3.385953 0.535564 11.421302 1.982069 59.173794 -10.999506 -2.191779 41.952072 10.419469 34.214073 -1.543503 -6.986141 -3.517219 -12.628973 5.874533 4.075510 21.392534 -4.023229 6.640719 5.661518 -0.332497 -7.036868 -11.579744 -8.484393 -5.802081 4.509354 4.527864 -10.538992 0.701808 -0.011912 -1.129827 
-1.993029 49.801937 -3.797822 4.613756 5.126952 0.049505 0.000000 0.000000 0.000000 1.316496 1.506564 -0.250307 6.302759 1.716193 -3.126229 13.847977 6.148518 -3.819828 -1.953330 -0.327077 1.854411 -66.254211 10.226673 18.711226 -42.260342 -5.505828 15.956973 -3.282301 0.922515 -3.387811 0.457067 11.318382 1.802091 58.921711 -10.910057 -3.225075 41.900745 10.272959 32.844196 -1.820887 -6.925537 -3.506370 -12.137815 5.234188 4.640763 26.127335 -4.213621 4.201785 3.641744 -0.194886 -6.258116 -11.519710 -8.121912 -5.570218 3.748804 4.460833 -10.746655 1.146069 -0.025895 -1.060432 
-2.068059 49.777390 -4.199217 5.117929 4.540761 -0.606661 0.000000 0.000000 0.000000 0.593156 1.756973 -0.195497 5.921265 2.028056 -3.214677 14.189932 5.768765 -3.777997 -2.200875 0.149220 1.200283 -66.623894 8.858951 18.835403 -42.978241 -5.346963 15.216548 -2.463848 0.803059 -3.406312 0.537982 11.370049 1.133717 58.418621 -10.830590 -3.938954 41.641251 10.110082 32.512295 -2.236571 -7.000858 -3.482427 -12.179900 5.230052 5.666887 30.989754 -4.453711 2.769512 2.697581 -0.093480 -5.084320 -12.232980 -7.253738 -4.910250 2.800663 4.382043 -10.967957 1.910973 -0.015533 -0.825525 
-2.044087 49.745163 -4.552662 4.654294 4.160090 -0.322833 0.000000 0.000000 0.000000 0.476429 1.871076 -1.167575 5.963003 1.968320 -3.800944 13.958674 5.644207 -3.434034 -2.717462 -0.394650 1.112067 -65.789391 7.123293 19.092184 -44.033566 -5.357836 14.148409 -3.293483 -0.388539 -3.342577 0.258912 11.138787 0.984411 57.860863 -10.227900 -4.703072 41.198456 9.957023 32.443726 -3.231740 -7.281545 -3.454369 -10.861168 4.663417 6.219690 34.777966 -4.215604 2.105503 3.492059 -0.102873 -4.278841 -11.742865 -7.047193 -5.002970 1.981943 4.567765 -11.274980 2.618795 -0.043461 -0.491671 
-2.082797 49.705299 -4.978586 4.309761 2.597648 -0.146334 0.000000 0.000000 0.000000 0.142170 2.736270 -1.769183 6.305595 2.327860 -4.153703 13.494034 6.140461 -3.575006 -3.345228 0.330183 0.867648 -65.559364 5.267548 19.690670 -44.540154 -5.296035 15.890630 -3.998002 -1.913444 -3.242326 -0.090945 11.718503 0.687551 57.088329 -10.198534 -5.542665 41.039246 9.774363 31.888224 -4.201074 -7.218865 -3.427367 -9.481544 5.595117 7.047098 37.638649 -3.620745 1.623435 4.493316 -0.139543 -3.761739 -11.060140 -5.495562 -4.430676 0.146682 4.608005 -12.659466 3.591222 -0.033415 -0.310821 
-2.074205 49.693413 -5.471761 3.924341 2.001871 0.517945 0.000000 0.000000 0.000000 -0.089486 2.716538 -2.601089 6.168018 2.325475 -4.896463 13.688536 6.529976 -3.626751 -4.203391 0.320297 0.691485 -64.779274 3.084911 20.565168 -45.618397 -5.346990 17.146515 -3.594836 -2.633012 -3.217225 -0.732386 11.761986 0.476791 56.435837 -9.506661 -6.313447 40.361462 9.689267 31.040771 -5.127719 -7.084862 -3.396885 -7.455481 5.765961 7.645085 38.253479 -3.405979 1.626544 5.760325 -0.161427 -3.741549 -10.360354 -5.058226 -4.339110 -1.527779 4.670133 -13.692790 4.185828 -0.040336 -0.415400 
-2.029475 49.624157 -6.080546 3.787264 1.152016 1.367500 0.000000 0.000000 0.000000 -0.546388 2.817019 -3.198634 6.023899 2.555638 -5.708755 13.436511 6.586918 -3.833826 -5.140887 0.753260 0.311217 -64.129791 0.595986 21.560816 -46.223747 -5.511241 18.554914 -3.009566 -2.923381 -3.245677 -1.361274 12.282627 0.109089 55.620613 -9.386278 -6.841339 40.376808 9.534586 30.540163 -7.850127 -7.821257 -3.267120 -5.429491 6.552195 8.215225 37.451210 -3.396153 0.136854 5.547196 -0.169730 -3.726590 -10.853512 -4.538327 -4.093024 -1.542221 4.656911 -14.766760 4.725224 -0.042071 -0.219674 
-1.932094 49.514622 -6.767233 3.510130 0.341509 2.353590 0.000000 0.000000 0.000000 -0.895090 2.941199 -3.857722 5.804390 2.416632 -6.372620 13.621657 7.431798 -4.155888 -5.469081 0.974701 0.019440 -63.390671 -2.409236 22.680222 -46.395721 -5.988559 18.760698 -2.011803 -3.071701 -3.288177 -1.731869 11.959703 -0.220200 56.054432 -9.375975 -7.721550 39.811584 9.226045 30.923935 -8.185391 -7.913622 -3.248532 -2.850848 7.428347 8.610657 34.821625 -3.542601 -2.078731 4.239288 -0.165253 -4.824238 -11.335937 -4.198408 -4.031569 -1.517717 4.748518 -15.782341 5.429693 -0.013125 0.057283 
-1.737704 49.359520 -7.522985 2.998896 -0.155995 3.271472 0.000000 0.000000 0.000000 -1.097446 2.811886 -4.188842 5.747321 2.316178 -7.085709 13.709063 7.739256 -4.572741 -5.905532 0.992642 -0.155566 -62.677818 -5.712307 23.614077 -45.822086 -6.559739 18.756416 -1.609606 -3.410611 -3.308544 -2.189207 11.957402 -0.369407 55.891445 -9.745086 -8.703711 39.844040 9.143216 29.735737 -7.726352 -6.626087 -3.336066 -0.898338 7.561669 8.221294 32.557667 -3.395048 -3.520437 0.357556 -0.016056 -3.709295 -11.604251 -4.323169 -4.230825 -1.500403 4.975949 -16.323256 5.858974 0.005174 0.206578 
-1.462452 49.149872 -8.451375 2.985141 -0.799093 3.721021 0.000000 0.000000 0.000000 -1.507151 2.823998 -4.268453 5.576485 2.274919 -7.573989 13.904174 8.132908 -5.040770 -6.095812 0.885075 -0.514737 -61.983067 -8.729051 24.304716 -45.233475 -6.985683 19.970814 -1.845490 -3.228679 -3.301484 -2.302089 11.836203 -0.729182 55.770164 -10.030576 -8.796525 39.559551 9.123974 29.964863 -7.118631 -6.368241 -3.367583 1.023954 7.621806 7.582316 28.761465 -3.168198 -5.399873 -4.692497 0.077668 -2.290266 -12.620993 -4.323788 -4.165728 -1.521326 5.163032 -16.534567 6.490212 0.026126 0.662624 
-1.154988 48.943214 -9.535135 2.959558 -1.421773 4.297973 0.000000 0.000000 0.000000 -1.671355 2.745502 -4.476846 5.440064 2.232821 -8.199270 14.109447 8.700855 -5.482930 -6.446989 0.730005 -0.669632 -61.171570 -11.742021 24.951988 -44.725193 -7.524604 20.533453 -1.907995 -3.173269 -3.290023 -2.468874 12.197062 -0.889936 55.221287 -9.898890 -8.647457 39.194271 9.219563 30.055342 -6.762023 -6.588710 -3.366415 3.610138 7.369236 6.923484 22.897678 -2.936508 -5.280179 -9.139133 0.112462 -1.971679 -13.759462 -4.423815 -4.109291 -1.609732 5.280969 -17.169512 7.147107 0.064006 1.121707 
-0.824688 48.829918 -10.730531 2.750998 -1.664076 4.796865 0.000000 0.000000 0.000000 -1.374546 2.310592 -4.719903 5.421820 1.842391 -8.979036 14.806577 9.761459 -6.013800 -6.679255 0.081548 -0.446183 -59.939850 -14.958678 25.770145 -43.844021 -8.336946 20.646343 -1.834240 -2.915203 -3.312956 -2.715579 12.120670 -0.648590 54.944832 -9.023602 -8.214769 37.951557 9.465238 30.423923 -6.709993 -6.487391 -3.374489 5.651567 6.228011 6.110990 16.921513 -2.736239 -1.665408 -11.403361 0.228419 -2.589276 -14.769562 -4.773578 -3.942267 -1.704414 5.110705 -17.680599 7.915524 0.108965 1.732517 
